<?xml version="1.0" standalone="no"?>
<!DOCTYPE svg PUBLIC "-//W3C//DTD SVG 20010904//EN"
 "http://www.w3.org/TR/2001/REC-SVG-20010904/DTD/svg10.dtd">
<svg version="1.0" xmlns="http://www.w3.org/2000/svg"
 width="70.000000pt" height="70.000000pt" viewBox="0 0 70.000000 70.000000"
 preserveAspectRatio="xMidYMid meet">
<metadata>
Created by potrace 1.11, written by Peter Selinger 2001-2013
</metadata>
<g transform="translate(0.000000,70.000000) scale(0.100000,-0.100000)"
fill="#000000" stroke="none">
<path d="M256 550 c-54 -27 -81 -55 -105 -106 -40 -84 -23 -180 42 -247 88
-89 224 -91 311 -3 107 107 80 283 -54 351 -61 31 -138 33 -194 5z m207 -78
c24 -22 55 -83 50 -99 -3 -7 -17 -10 -39 -6 -29 5 -34 3 -34 -14 0 -15 7 -20
31 -21 46 -1 51 -12 26 -57 -25 -44 -79 -85 -112 -85 -18 0 -21 5 -19 35 3 29
0 35 -17 35 -11 0 -19 -6 -18 -12 1 -7 1 -25 0 -40 -1 -22 -5 -25 -23 -21 -40
10 -90 54 -109 97 l-18 41 37 5 c24 3 38 11 40 22 3 14 -4 17 -32 16 -20 -1
-38 1 -41 4 -3 2 5 24 18 49 23 47 76 89 111 89 17 0 21 -6 21 -32 0 -23 5
-33 15 -33 15 0 16 5 19 53 1 22 2 22 38 7 21 -9 46 -23 56 -33z"/>
</g>
</svg>
